<mxfile host="app.diagrams.net" agent="Mozilla/5.0 (Windows NT 10.0; Win64; x64) AppleWebKit/537.36 (KHTML, like Gecko) Chrome/136.0.0.0 Safari/537.36" version="27.0.6">
  <diagram name="Page-1" id="WEg1INcckZIeq0k-rPom">
    <mxGraphModel dx="1665" dy="767" grid="1" gridSize="10" guides="1" tooltips="1" connect="1" arrows="1" fold="1" page="1" pageScale="1" pageWidth="827" pageHeight="1169" math="0" shadow="0">
      <root>
        <mxCell id="0" />
        <mxCell id="1" parent="0" />
        <UserObject label="# Admin Use Case Diagram (draw.io XML Code)&#xa;&#xa;```xml&#xa;&#xa;  &#xa;    &#xa;      &#xa;        &#xa;        &#xa;        &#xa;          &#xa;        &#xa;        &#xa;          &#xa;        &#xa;        &#xa;          &#xa;        &#xa;        &#xa;          &#xa;        &#xa;        &#xa;          &#xa;        &#xa;        &#xa;          &#xa;        &#xa;        &#xa;          &#xa;        &#xa;        &#xa;          &#xa;        &#xa;        &#xa;          &#xa;        &#xa;        &#xa;          &#xa;        &#xa;        &#xa;          &#xa;        &#xa;        &#xa;          &#xa;        &#xa;        &#xa;          &#xa;        &#xa;      &#xa;    &#xa;  &#xa;&#xa;```&#xa;&#xa;To use this code in draw.io:&#xa;&#xa;1.  Open draw.io ([app.diagrams.net](http://app.diagrams.net)).&#xa;2.  Create a new diagram or open an existing one.&#xa;3.  Click on &quot;File&quot; in the menu.&#xa;4.  Select &quot;Open From&quot; and choose &quot;Device&quot; to open a local file, or &quot;URL&quot; to open from a web address. Alternatively, select &quot;Import&quot; to import the code into the current diagram.&#xa;5.  If you choose &quot;Import&quot;, a dialog box will appear. Paste the draw.io XML code into the dialog box and click &quot;Import&quot;." link="# Admin Use Case Diagram (draw.io XML Code)&#xa;&#xa;```xml&#xa;&#xa;  &#xa;    &#xa;      &#xa;        &#xa;        &#xa;        &#xa;          &#xa;        &#xa;        &#xa;          &#xa;        &#xa;        &#xa;          &#xa;        &#xa;        &#xa;          &#xa;        &#xa;        &#xa;          &#xa;        &#xa;        &#xa;          &#xa;        &#xa;        &#xa;          &#xa;        &#xa;        &#xa;          &#xa;        &#xa;        &#xa;          &#xa;        &#xa;        &#xa;          &#xa;        &#xa;        &#xa;          &#xa;        &#xa;        &#xa;          &#xa;        &#xa;        &#xa;          &#xa;        &#xa;      &#xa;    &#xa;  &#xa;&#xa;```&#xa;&#xa;To use this code in draw.io:&#xa;&#xa;1.  Open draw.io ([app.diagrams.net](http://app.diagrams.net)).&#xa;2.  Create a new diagram or open an existing one.&#xa;3.  Click on &quot;File&quot; in the menu.&#xa;4.  Select &quot;Open From&quot; and choose &quot;Device&quot; to open a local file, or &quot;URL&quot; to open from a web address. Alternatively, select &quot;Import&quot; to import the code into the current diagram.&#xa;5.  If you choose &quot;Import&quot;, a dialog box will appear. Paste the draw.io XML code into the dialog box and click &quot;Import&quot;." id="qsErxZAYpckHAg2BYMy_-3">
          <mxCell style="text;whiteSpace=wrap;html=1;" vertex="1" parent="1">
            <mxGeometry x="30" y="30" width="560" height="930" as="geometry" />
          </mxCell>
        </UserObject>
      </root>
    </mxGraphModel>
  </diagram>
</mxfile>
